<svg version="1.2" xmlns="http://www.w3.org/2000/svg" viewBox="0 0 1814 808" width="1814" height="808"><defs><linearGradient id="P" gradientUnits="userSpaceOnUse"/><linearGradient id="g1" x2="1" href="#P" gradientTransform="matrix(696.29,0,0,720.82,137.41,438.8)"><stop offset=".15" stop-color="#3d3d46"/><stop offset=".72" stop-color="#77bee6"/></linearGradient><clipPath clipPathUnits="userSpaceOnUse" id="cp1"><path d="m137.41 799.21c0 0-1.01-87.04 59.22-172.17 8.68-12.27 18.63-24.5 30.04-36.42 17.53-18.31 38.49-35.91 63.58-51.81 154.73-98.12 267.95-188.7 315.12-333.99 37.15-114.43 122.3-117.67 156.79-113.88 9.3 1.02 71.53-12.54 71.53-12.54l-45.29 52.83c0 0-79.25 86.16-75.48 181.77 3.77 95.61-50.95 199.39-160.39 227.7 0 0-311.58 56.84-415.13 258.51z"/></clipPath><linearGradient id="g2" x2="1" href="#P" gradientTransform="matrix(524.57,0,0,471.525,267.04,319.08)"><stop offset=".11" stop-color="#3d3d46" stop-opacity=".7"/><stop offset=".7" stop-color="#77bee6" stop-opacity="1"/></linearGradient><clipPath clipPathUnits="userSpaceOnUse" id="cp2"><path d="m137.41 799.21c0 0-1.01-87.04 59.22-172.17 8.68-12.27 18.63-24.5 30.04-36.42 17.53-18.31 38.49-35.91 63.58-51.81 154.73-98.12 267.95-188.7 315.12-333.99 37.15-114.43 122.3-117.67 156.79-113.88 9.3 1.02 14.92 2.55 14.92 2.55l56.61-15.1-45.29 52.83c0 0-79.25 86.16-75.48 181.77 3.77 95.61-50.95 199.39-160.39 227.7 0 0-311.58 56.84-415.13 258.51z"/></clipPath><linearGradient id="g3" x2="1" href="#P" gradientTransform="matrix(612.31,0,0,627.918,267.69,381.71)"><stop offset=".57" stop-color="#3d3d46"/><stop offset=".8" stop-color="#77bee6"/></linearGradient><linearGradient id="g4" x2="1" href="#P" gradientTransform="matrix(462.114,361.531,-81.82,104.583,17.095,4.028)"><stop offset=".45" stop-color="#ff803a"/><stop offset=".5" stop-color="#f77d3a"/><stop offset=".59" stop-color="#e2763b"/><stop offset=".7" stop-color="#bf6a3d"/><stop offset=".82" stop-color="#905940"/><stop offset=".95" stop-color="#534444"/><stop offset="1" stop-color="#3d3d46"/></linearGradient><linearGradient id="g5" x2="1" href="#P" gradientTransform="matrix(476.51,122.689,-27.802,107.982,6.085,237.646)"><stop offset=".52" stop-color="#ff803a"/><stop offset="1" stop-color="#3d3d46"/></linearGradient><linearGradient id="g6" x2="1" href="#P" gradientTransform="matrix(291.331,10.224,-4.134,117.79,194.664,287.741)"><stop stop-color="#b65b51"/><stop offset=".72" stop-color="#3d3d46"/></linearGradient></defs><style>.a{fill:url(#g1)}.b{fill:url(#g2)}.c{opacity:.47;fill:url(#g3)}.d{fill:url(#g4)}.e{fill:url(#g5)}.f{fill:url(#g6)}.g{fill:#292930}</style><path class="a" d="m137.4 799.2c0 0-1-87 59.2-172.2 8.7-12.2 18.7-24.5 30.1-36.4 17.5-18.3 38.5-35.9 63.5-51.8 154.8-98.1 268-188.7 315.2-334 37.1-114.4 122.3-117.6 156.8-113.9 9.3 1.1 14.9 2.6 14.9 2.6l56.6-15.1-45.3 52.8c0 0-79.3 86.2-75.5 181.8 3.8 95.6-50.9 199.4-160.4 227.7 0 0-311.6 56.8-415.1 258.5z"/><g clip-path="url(#cp1)"><path class="b" d="m791.6 91.6c0 0-28.1 4.6-28.1 1.1 0.1-21.1-89.8-7.1-123.7 46.6-38.3 60.8-53.9 104.5-80.1 157-30 60.2-90 107.4-113.4 133.5-23.3 26.2-179.2 125-179.2 125 0 0 217.4-87 302.3-217.2 0 0 61.4-101.7 87.8-163 26.4-61.3 133.7-84.8 133.7-84.8"/></g><g clip-path="url(#cp2)"><path class="c" d="m849.3 67.8c0 0-148.4 101.6-158 204.2-9.9 105.7-25.4 136.2-76.9 190.6-42 44.4-188.5 99.3-206.1 107.6-253.7 119.8-95.9 134.4-49.1 121.7 12.8-3.5 282.1-68.5 282.1-68.5l188.4-221.7 50.3-191.5-30.6-142.4z"/></g><path class="d" d="m20.2 0c0 0 93.2 281.7 465.5 357.2 0 0-154.1-280.5-452.9-353.7z"/><path class="e" d="m0 225c0 0 165.5 194.5 486.9 134.2 0 0-213.8-173.9-475.8-135.5 0 0-11.1 1.3-11.1 1.3z"/><path class="f" d="m483.9 356.8c-19.3-14.9-132.4-98.1-287.2-128 68.9 53.6 162.3 102.4 287.3 128z"/><path class="g" d="m895.8 307.9q0 11.5-4.4 15.9-4.4 4.4-13 4.4h-23q-9.4 59.4-9.4 113 0 16.2 0.7 23.5 0.7 7.3 3.7 24.9-31.1-12.4-31-56.6 0-49.8 10.1-103.1-13.7 2.2-28.3 8.2-0.5-4.4-0.5-7.9 0-13.2 8.6-17.8 8.7-4.5 24.9-4.5 23.6-96.8 72.8-96.8 16.3 0 26.7 9.1 10.4 9.1 10.4 21.7 0 12.7-7.4 21.3-7.4 8.7-19.5 8.7-4.9 0-9.1-1.9 3.3-3.1 6.8-10.1 3.4-7 3.4-14.5 0-7.6-4-12.8-4-5.2-10.3-5.2-29.1 0-45.3 81.3 26.6 0 36.5-8 0.6 3.9 0.6 7.2z"/><path class="g" d="m959.8 350.9q-8 13.9-12.2 28.3-4.3 14.4-4.3 27.6 0 13.2 5.9 22.4 5.9 9.2 16.9 9.2 15.4 0 28.9-16.9 13.4-16.9 20.7-40.9 7.3-24.1 7.3-44.6 0-20.4-1.6-33.6 6.6-0.6 8.2-0.6 23.4 0 23.4 23.9 0 5.3-6.6 42.5-6.6 37.3-6.6 59.7 0 22.4 8.5 39.7-17.3-3.6-25.2-15.3-7.8-11.6-7.8-33.6 0-3.9 1.1-14.9-7.4 26.1-26.1 42.1-18.7 15.9-36.7 15.9-18 0-29-13.6-11-13.6-11-37.7 0-24 8.9-47 9-22.9 27-39.7 18-16.7 40.3-16.8 9.6 0 21.1 3.9-16.2 4.1-29.7 15.1-13.4 11-21.4 24.9z"/><path class="g" d="m1151.5 313.4q-9.2 0-16.5 5.8-7.3 5.7-7.3 15.8 0 10 6.8 18.8 6.7 8.8 16.3 15.7 9.6 6.8 19.5 14 23.1 17 23.1 36.5 0 19.5-15.6 31.8-15.7 12.2-40 12.2-24.3 0-37.7-9.6-13.3-9.6-13.3-22.7 0-13.1 6.6-20.5 6.6-7.4 15.9-7.4 5 0 9.4 2.2-6.1 7.7-6.1 18.1 0 10.5 6.5 17.6 6.4 7.2 17.9 7.2 11.4 0 19.3-5.9 8-5.9 8-15 0-9.1-4.7-15.9-4.6-6.9-11.6-11.9-7.1-4.9-15.3-11-8.2-6-15.3-11.9-7-5.9-11.6-14.9-4.7-8.9-4.7-19.6 0-19.5 14.8-32 14.9-12.5 37.4-12.5 22.6 0 33 9.3 10.4 9.4 10.4 21 0.1 11.7-5.7 19.3-5.8 7.5-14.9 7.5-4.4 0-10.1-2.4 7.1-8.8 7.1-19 0-10.2-6.2-15.4-6.1-5.2-15.4-5.2z"/><path class="g" d="m1293.9 321.2q18.8-21.3 35.3-21.3 16.5 0 23.4 10.1 6.8 10 6.8 27.2 0 17.1-5.3 48.2-5.4 31.1-5.4 45.2 0 14.2 3.6 20.6 3.6 6.5 12.1 11.2-3.6 0.2-10.2 0.2-17.6 0-26-7.2-8.3-7.3-8.3-24.9 0-10.2 5.5-41.1 5.5-30.9 5.5-45.5 0-18.1-12.7-18.1-7.4 0-16.5 7.8-9 7.8-17.4 21.2-8.4 13.3-14 33.8-5.7 20.4-5.7 40.4 0 19.9 1.7 29.5-6.6 0.6-7.4 0.6-13 0-19.1-5.5-6.2-5.5-6.2-17.2 0-11.7 4.9-44.9 14.6-102.3 14.6-155.3 0-23.9-3.3-32.2 15.9 5.8 22.4 17 6.5 11.3 6.5 31.1 0 13.8-5.4 57.7-5.4 44-7.3 63.8 9.1-31.1 27.9-52.4z"/><path class="g" d="m1416.5 445.7q-6.2-11.4-6.2-27.6 0-16.2 4.4-46.4 4.4-30.3 4.4-47 0-16.8-1.6-25.9 4.9-0.5 7.9-0.5 12.4 0 17.9 5.5 5.5 5.5 5.5 18.1 0 4.1-6.7 43.3-6.8 39.2-6.9 64.6-0.1 25.4 3.2 32.8-15.7-5.5-21.9-16.9zm26-174.6q-23.1 0-23.1-15.7 0-5.5 4.1-15.4 6.1-1.1 10.5-1.1 23 0 23 15.7 0 5.5-4.1 15.4-6 1.1-10.4 1.1z"/><path class="g" d="m1543.8 314.4q17.7-13.7 36-13.7 18.2 0 30.3 16.1 12.1 16.1 12.1 43.6 0 30.2-11.5 56.1-12.9 28.5-37.4 39.8-13.2 6.3-29.1 6.3-22.3 0-39.1-18.5-16.7-18.6-16.7-53.1 0-34.5 14.8-59.7 14.8-25.3 40.4-35.2 5.5 0 5.5 5.5-27.2 17.9-33.5 56.1 10.4-29.7 28.2-43.3zm51.5 53.8q0-26.8-6.7-38.5-6.8-11.6-19.3-11.6-12.5 0-25.1 12.2-12.7 12.2-20 30.2-7.2 18-7.2 37.4 0 19.4 7.4 33.5 7.4 14.2 22.5 14.2 21.5 0 34.9-25.3 13.5-25.3 13.5-52.1z"/><path class="g" d="m1789.3 338.9q0 12.7-5.3 44.7-5.4 32-5.4 46.6 0 14.6 3.6 21 3.6 6.5 12.1 11.2-3.6 0.2-10.2 0.2-18.7 0-26.5-7-7.8-7-7.8-25.1 0-10.2 5.5-41.1 5.5-30.9 5.5-45.5 0-18.1-11-18.1-17.6 0-36.5 31-18.8 31.1-18.8 74.8 0 17.3 1.7 26.9-7.2 0.6-8.5 0.6-24.2 0-24.2-23.7 0-5.5 5.7-42.3 5.8-36.8 5.8-58.7 0-21.8-4.7-40.2 16.2 6.3 22.7 18 6.5 11.6 6.5 26.6 0 15-3.3 34.8 9-31.1 28.4-52.4 19.4-21.3 36.2-21.3 28.6 0 28.6 39.1z"/><path class="g" d="m866.9 615.1q-13.2 0-25.8-3-0.3 2.8-0.3 8.5 0 22.8 8.5 34.4 8.5 11.5 20.4 11.5 11.8 0 22.5-7.1 10.7-7.2 18.7-19.8 9.9 2.2 9.9 10.2-24.2 37.1-62.4 37.1-23.1 0-40.4-17.8-17.3-17.7-17.3-49.3 0-23.6 9-44.9 9.1-21.3 28.9-36.1 19.8-14.7 43.8-14.7 24.1 0 35.4 11 11.2 11 11.2 28.9 0 25.8-18 38.5-18 12.6-44.1 12.6zm11.5-73.9q-14 0-23.6 17.3-9.6 17.3-12.6 42h4.1q23.9 0 35.3-12.3 11.4-12.4 11.4-29.7 0-7.2-3.7-12.3-3.7-5-10.9-5z"/><path class="g" d="m1064.8 691q-19.2 0-33.1-16.6-13.9-16.6-26-46.6-24.2 29.7-35.2 66.5-20.6-17-20.6-30.2 0-9.7 12-23.8 11.9-14.2 35-35.6-17.6-47.6-24-59-6.5-11.4-10.6-16.9 13.7-7.1 25-7.1 9.1 0 14.8 7.7 6.9 8.5 10.5 18.2 3.6 9.8 5.3 15.4 1.8 5.7 5.4 16.7 39.3-38.5 43.4-60.5 16.2 13.8 16.3 23.9 0 7.2-5 14.6-4.9 7.4-10.4 12.5-5.5 5.1-18 15.4-12.6 10.3-19.1 16.3 9.6 26.7 25.8 52 16.2 25.3 26.1 34.6-9.9 2.5-17.6 2.5z"/><path class="g" d="m1184.2 543.9q17.5-13.2 34.5-13.1 17.1 0 28.2 13.6 11.1 13.6 11.1 39.4 0 41.2-22.5 70.1-22.6 28.9-54.2 28.9-11.2 0-22.8-4.4 27-6.4 42.9-35 15.9-28.5 16-56.9-0.1-13.2-4.9-21.4-4.8-8.2-13.6-8.2-16.7 0-29.7 20.3-12.9 20.3-19.7 55.7-6.9 35.3-6.9 73.6 0 38.4 5.5 66.7-22.6-0.8-33.4-7.3-10.9-6.5-10.9-24.6 0-6.6 8.4-69.7 8.4-63.1 8.4-97.2 0-34-4.1-57.4 21.9 5.5 30.3 20.3 8.4 14.9 8.4 43.5 11.6-23.7 29-36.9z"/><path class="g" d="m1388 525q16.5 0 28.1 16.2 11.5 16.2 11.5 43.4 0 30.5-12.4 56.1-13.7 28.9-39 39.9-14.3 6.3-31.3 6.3-23.9 0-41.6-18.6-17.8-18.5-17.8-53.3 0-34.8 17.1-61.3 17-26.5 45-33.4 3.1 0 5.7 1.8 2.6 1.8 2.6 3.7-27.8 19.3-33.3 53.6 5.8-15.4 14.2-26.6 8.4-11.3 17.4-17.1 17.3-10.7 33.8-10.7zm-17 20.1q-17.9 0-31.9 24-14 24.1-14 48 0 50 25.8 50 18.4 0 30-24 11.5-24.1 11.5-54 0-44-21.4-44z"/></svg>