<svg width="1795" height="800" viewBox="0 0 1795 800" fill="none" xmlns="http://www.w3.org/2000/svg">
<path d="M137.41 799.21C137.41 799.21 136.4 712.17 196.63 627.04C205.31 614.77 215.26 602.54 226.67 590.62C244.2 572.31 265.16 554.71 290.25 538.81C444.98 440.69 558.2 350.11 605.37 204.82C642.52 90.39 727.67 87.15 762.16 90.94C771.46 91.96 777.08 93.49 777.08 93.49L833.69 78.39L788.4 131.22C788.4 131.22 709.15 217.38 712.92 312.99C716.69 408.6 661.97 512.38 552.53 540.69C552.53 540.69 240.95 597.53 137.4 799.2L137.41 799.21Z" fill="url(#paint0_linear_229_1075)"/>
<mask id="mask0_229_1075" style="mask-type:luminance" maskUnits="userSpaceOnUse" x="137" y="78" width="697" height="722">
<path d="M137.41 799.21C137.41 799.21 136.4 712.17 196.63 627.04C205.31 614.77 215.26 602.54 226.67 590.62C244.2 572.31 265.16 554.71 290.25 538.81C444.98 440.69 558.2 350.11 605.37 204.82C642.52 90.39 727.67 87.15 762.16 90.94C771.46 91.96 833.69 78.4 833.69 78.4L788.4 131.23C788.4 131.23 709.15 217.39 712.92 313C716.69 408.61 661.97 512.39 552.53 540.7C552.53 540.7 240.95 597.54 137.4 799.21H137.41Z" fill="white"/>
</mask>
<g mask="url(#mask0_229_1075)">
<path d="M791.61 91.6C791.61 91.6 763.46 96.16 763.48 92.66C763.61 71.65 673.67 85.55 639.82 139.28C601.5 200.1 585.88 243.76 559.67 296.33C529.7 356.46 469.65 403.65 446.3 429.83C422.95 456.01 267.05 554.84 267.05 554.84C267.05 554.84 484.51 467.78 569.42 337.58C569.42 337.58 630.75 235.94 657.16 174.62C683.58 113.29 790.91 89.8 790.91 89.8" fill="url(#paint1_linear_229_1075)"/>
</g>
<mask id="mask1_229_1075" style="mask-type:luminance" maskUnits="userSpaceOnUse" x="137" y="78" width="697" height="722">
<path d="M137.41 799.21C137.41 799.21 136.4 712.17 196.63 627.04C205.31 614.77 215.26 602.54 226.67 590.62C244.2 572.31 265.16 554.71 290.25 538.81C444.98 440.69 558.2 350.11 605.37 204.82C642.52 90.39 727.67 87.15 762.16 90.94C771.46 91.96 777.08 93.49 777.08 93.49L833.69 78.39L788.4 131.22C788.4 131.22 709.15 217.38 712.92 312.99C716.69 408.6 661.97 512.38 552.53 540.69C552.53 540.69 240.95 597.53 137.4 799.2L137.41 799.21Z" fill="white"/>
</mask>
<g mask="url(#mask1_229_1075)">
<path opacity="0.47" d="M849.34 67.78C849.34 67.78 700.93 169.38 691.31 272.04C681.4 377.72 665.92 408.22 614.42 462.62C572.44 506.96 425.86 561.87 408.27 570.18C154.61 689.98 312.42 704.56 359.21 691.89C371.96 688.44 641.31 623.44 641.31 623.44L829.67 401.72L880.01 210.19L849.35 67.77L849.34 67.78Z" fill="url(#paint2_linear_229_1075)"/>
</g>
<path d="M20.2402 0C20.2402 0 113.42 281.71 485.72 357.22C485.72 357.22 331.57 76.7 32.7702 3.45L20.2402 0Z" fill="url(#paint3_linear_229_1075)"/>
<path d="M0.000234375 224.97C0.000234375 224.97 165.53 419.49 486.92 359.17C486.92 359.17 273.14 185.34 11.1002 223.66L-0.00976562 224.97H0.000234375Z" fill="url(#paint4_linear_229_1075)"/>
<path d="M483.95 356.84C464.6 341.9 351.48 258.69 196.74 228.82C265.65 282.36 359.02 331.22 483.95 356.84Z" fill="url(#paint5_linear_229_1075)"/>
<path d="M895.76 307.89C895.76 315.59 894.29 320.9 891.36 323.83C888.43 326.76 884.12 328.23 878.44 328.23H855.35C849.12 367.81 846.01 405.47 846.01 441.2C846.01 452.01 846.24 459.84 846.7 464.7C847.16 469.55 848.39 477.85 850.41 489.58C829.7 481.33 819.35 462.46 819.35 432.96C819.35 399.8 822.74 365.44 829.52 329.88C820.35 331.35 810.92 334.1 801.21 338.13C800.84 335.2 800.66 332.54 800.66 330.16C800.66 321.36 803.55 315.45 809.32 312.43C815.09 309.41 823.38 307.89 834.2 307.89C849.96 243.39 874.24 211.14 907.04 211.14C917.85 211.14 926.74 214.16 933.7 220.21C940.66 226.26 944.14 233.5 944.14 241.92C944.14 250.34 941.67 257.45 936.72 263.22C931.77 268.99 925.27 271.88 917.2 271.88C913.9 271.88 910.88 271.24 908.13 269.96C910.33 267.95 912.57 264.6 914.86 259.93C917.15 255.26 918.3 250.4 918.3 245.36C918.3 240.32 916.97 236.06 914.31 232.58C911.65 229.1 908.22 227.36 904 227.36C884.58 227.36 869.46 254.48 858.65 308.72C876.42 308.72 888.61 306.07 895.21 300.75C895.57 303.32 895.76 305.7 895.76 307.9V307.89Z" fill="white"/>
<path d="M959.8 350.9C954.48 360.15 950.41 369.59 947.57 379.21C944.73 388.83 943.31 398.04 943.31 406.83C943.31 415.62 945.28 423.09 949.22 429.23C953.16 435.37 958.79 438.44 966.12 438.44C976.38 438.44 986 432.81 994.98 421.54C1003.96 410.27 1010.87 396.62 1015.73 380.58C1020.58 364.55 1023.01 349.7 1023.01 336.05C1023.01 322.4 1022.46 311.17 1021.36 302.38C1025.76 302.01 1028.51 301.83 1029.61 301.83C1045.18 301.83 1052.97 309.8 1052.97 325.74C1052.97 329.22 1050.77 343.38 1046.37 368.21C1041.97 393.04 1039.77 412.92 1039.77 427.86C1039.77 442.8 1042.61 456.03 1048.29 467.58C1036.75 465.2 1028.36 460.11 1023.14 452.33C1017.92 444.55 1015.31 433.32 1015.31 418.66C1015.31 416.1 1015.68 411.15 1016.41 403.82C1011.46 421.23 1002.76 435.25 990.3 445.87C977.84 456.5 965.6 461.81 953.61 461.81C941.62 461.81 931.94 457.27 924.61 448.2C917.28 439.13 913.62 426.58 913.62 410.54C913.62 394.5 916.6 378.84 922.55 363.54C928.5 348.24 937.48 335 949.49 323.82C961.49 312.65 974.91 307.05 989.76 307.05C996.17 307.05 1003.23 308.33 1010.93 310.9C1000.12 313.65 990.22 318.69 981.24 326.02C972.26 333.35 965.11 341.64 959.8 350.9Z" fill="white"/>
<path d="M1151.52 313.38C1145.38 313.38 1139.88 315.3 1135.03 319.15C1130.17 323 1127.75 328.27 1127.75 334.95C1127.75 341.63 1129.99 347.92 1134.48 353.78C1138.97 359.65 1144.42 364.87 1150.83 369.45C1157.24 374.03 1163.75 378.7 1170.35 383.47C1185.74 394.83 1193.44 407.02 1193.44 420.03C1193.44 433.04 1188.22 443.63 1177.77 451.78C1167.32 459.93 1153.99 464.01 1137.78 464.01C1121.57 464.01 1109.01 460.8 1100.12 454.39C1091.23 447.98 1086.79 440.42 1086.79 431.71C1086.79 423 1088.99 416.18 1093.39 411.23C1097.79 406.28 1103.1 403.81 1109.33 403.81C1112.63 403.81 1115.74 404.54 1118.68 406.01C1114.65 411.14 1112.63 417.19 1112.63 424.15C1112.63 431.11 1114.78 436.98 1119.09 441.74C1123.39 446.51 1129.35 448.89 1136.96 448.89C1144.57 448.89 1151.02 446.92 1156.34 442.98C1161.65 439.04 1164.31 434.05 1164.31 428C1164.31 421.95 1162.75 416.64 1159.64 412.06C1156.52 407.48 1152.63 403.54 1147.96 400.24C1143.29 396.94 1138.2 393.28 1132.71 389.24C1127.21 385.21 1122.13 381.23 1117.45 377.28C1112.78 373.34 1108.88 368.39 1105.77 362.44C1102.65 356.49 1101.1 349.93 1101.1 342.79C1101.1 329.78 1106.05 319.11 1115.94 310.77C1125.84 302.43 1138.29 298.26 1153.32 298.26C1168.35 298.26 1179.34 301.38 1186.3 307.61C1193.26 313.84 1196.75 320.85 1196.75 328.64C1196.75 336.43 1194.83 342.84 1190.98 347.88C1187.13 352.92 1182.18 355.44 1176.14 355.44C1173.21 355.44 1169.82 354.62 1165.97 352.97C1170.73 347.11 1173.12 340.79 1173.12 334C1173.12 327.21 1171.06 322.09 1166.94 318.61C1162.82 315.13 1157.68 313.39 1151.55 313.39L1151.52 313.38Z" fill="white"/>
<path d="M1293.9 321.22C1306.45 307.02 1318.23 299.92 1329.22 299.92C1340.21 299.92 1348 303.26 1352.58 309.95C1357.16 316.64 1359.45 325.71 1359.45 337.16C1359.45 348.61 1357.66 364.69 1354.09 385.4C1350.52 406.11 1348.73 421.18 1348.73 430.61C1348.73 440.04 1349.92 446.92 1352.3 451.23C1354.68 455.54 1358.71 459.24 1364.39 462.36C1362.01 462.54 1358.62 462.64 1354.22 462.64C1342.49 462.64 1333.83 460.21 1328.24 455.36C1322.65 450.51 1319.86 442.21 1319.86 430.48C1319.86 423.7 1321.69 410 1325.36 389.39C1329.02 368.77 1330.86 353.61 1330.86 343.9C1330.86 331.81 1326.64 325.76 1318.22 325.76C1313.27 325.76 1307.77 328.37 1301.73 333.59C1295.69 338.81 1289.86 345.87 1284.28 354.76C1278.69 363.65 1274.02 374.92 1270.26 388.57C1266.5 402.22 1264.63 415.69 1264.63 428.98C1264.63 442.27 1265.18 452.12 1266.28 458.53C1261.88 458.9 1259.41 459.08 1258.86 459.08C1250.24 459.08 1243.88 457.25 1239.76 453.58C1235.64 449.92 1233.58 444.19 1233.58 436.4C1233.58 428.61 1235.23 413.63 1238.53 391.46C1248.24 323.29 1253.1 271.53 1253.1 236.16C1253.1 220.22 1252 209.5 1249.8 204C1260.43 207.85 1267.89 213.53 1272.2 221.04C1276.5 228.56 1278.66 238.91 1278.66 252.1C1278.66 261.27 1276.87 280.51 1273.3 309.82C1269.73 339.14 1267.3 360.4 1266.02 373.59C1272.07 352.88 1281.36 335.43 1293.92 321.23L1293.9 321.22Z" fill="white"/>
<path d="M1416.48 445.73C1412.36 438.13 1410.3 428.92 1410.3 418.11C1410.3 407.3 1411.76 391.82 1414.7 371.66C1417.63 351.5 1419.1 335.84 1419.1 324.66C1419.1 313.48 1418.55 304.87 1417.45 298.82C1420.75 298.45 1423.4 298.27 1425.42 298.27C1433.67 298.27 1439.62 300.1 1443.29 303.77C1446.95 307.44 1448.79 313.48 1448.79 321.91C1448.79 324.66 1446.54 339.09 1442.06 365.2C1437.57 391.31 1435.28 412.85 1435.19 429.79C1435.1 446.74 1436.15 457.69 1438.35 462.64C1427.9 458.97 1420.62 453.34 1416.5 445.74L1416.48 445.73ZM1442.46 271.05C1427.07 271.05 1419.37 265.83 1419.37 255.38C1419.37 251.72 1420.74 246.59 1423.49 239.99C1427.52 239.26 1431 238.89 1433.93 238.89C1449.32 238.89 1457.02 244.11 1457.02 254.56C1457.02 258.23 1455.65 263.36 1452.9 269.95C1448.87 270.68 1445.38 271.05 1442.46 271.05Z" fill="white"/>
<path d="M1543.75 314.35C1555.57 305.28 1567.57 300.74 1579.76 300.74C1591.95 300.74 1602.07 306.1 1610.13 316.82C1618.19 327.54 1622.22 342.06 1622.22 360.39C1622.22 380.55 1618.37 399.24 1610.68 416.46C1602.06 435.52 1589.61 448.8 1573.3 456.32C1564.51 460.53 1554.79 462.64 1544.16 462.64C1529.32 462.64 1516.3 456.46 1505.13 444.09C1493.95 431.72 1488.36 414.04 1488.36 391.04C1488.36 368.04 1493.31 348.12 1503.2 331.26C1513.1 314.4 1526.56 302.67 1543.61 296.08C1547.27 296.08 1549.11 297.91 1549.11 301.58C1530.97 313.49 1519.79 332.19 1515.58 357.65C1522.54 337.86 1531.93 323.43 1543.75 314.36V314.35ZM1595.29 368.22C1595.29 350.35 1593.04 337.53 1588.56 329.74C1584.07 321.95 1577.65 318.06 1569.32 318.06C1560.99 318.06 1552.6 322.14 1544.17 330.29C1535.74 338.45 1529.1 348.53 1524.24 360.53C1519.38 372.53 1516.96 384.99 1516.96 397.91C1516.96 410.83 1519.43 422.01 1524.38 431.44C1529.33 440.88 1536.84 445.6 1546.92 445.6C1561.21 445.6 1572.85 437.17 1581.83 420.31C1590.81 403.45 1595.3 386.09 1595.3 368.22H1595.29Z" fill="white"/>
<path d="M1789.34 338.95C1789.34 347.38 1787.55 362.27 1783.98 383.62C1780.41 404.97 1778.62 420.5 1778.62 430.21C1778.62 439.92 1779.81 446.93 1782.19 451.24C1784.57 455.55 1788.6 459.25 1794.28 462.37C1791.9 462.55 1788.51 462.65 1784.11 462.65C1771.65 462.65 1762.81 460.31 1757.59 455.64C1752.37 450.97 1749.76 442.58 1749.76 430.49C1749.76 423.71 1751.59 410.01 1755.26 389.4C1758.92 368.78 1760.76 353.62 1760.76 343.91C1760.76 331.82 1757.09 325.77 1749.77 325.77C1738.04 325.77 1725.9 336.12 1713.35 356.83C1700.8 377.54 1694.52 402.46 1694.52 431.59C1694.52 443.13 1695.07 452.11 1696.17 458.53C1691.4 458.9 1688.56 459.08 1687.65 459.08C1671.52 459.08 1663.46 451.2 1663.46 435.44C1663.46 431.78 1665.38 417.67 1669.23 393.11C1673.08 368.56 1675 348.99 1675 334.43C1675 319.87 1673.44 306.44 1670.33 294.16C1681.14 298.38 1688.7 304.38 1693.01 312.16C1697.31 319.95 1699.47 328.84 1699.47 338.82C1699.47 348.8 1698.37 360.4 1696.17 373.59C1702.22 352.88 1711.7 335.43 1724.62 321.23C1737.54 307.03 1749.59 299.93 1760.76 299.93C1779.82 299.93 1789.35 312.94 1789.35 338.96L1789.34 338.95Z" fill="white"/>
<path d="M866.9 615.13C858.1 615.13 849.49 614.13 841.06 612.11C840.88 613.94 840.79 616.78 840.79 620.63C840.79 635.84 843.63 647.29 849.31 654.99C854.99 662.69 861.77 666.53 869.65 666.53C877.53 666.53 885.04 664.15 892.19 659.38C899.34 654.62 905.56 648.02 910.88 639.59C917.48 641.06 920.78 644.45 920.78 649.76C904.65 674.5 883.85 686.87 858.39 686.87C843 686.87 829.53 680.96 817.98 669.14C806.44 657.32 800.66 640.88 800.66 619.8C800.66 604.04 803.68 589.06 809.73 574.86C815.78 560.66 825.4 548.66 838.59 538.85C851.78 529.05 866.39 524.14 882.43 524.14C898.47 524.14 910.23 527.81 917.75 535.13C925.26 542.46 929.02 552.08 929.02 563.99C929.02 581.22 923.02 594.04 911.02 602.47C899.02 610.9 884.31 615.11 866.9 615.11V615.13ZM878.44 541.19C869.1 541.19 861.21 546.96 854.8 558.51C848.38 570.05 844.17 584.07 842.16 600.56H846.28C862.22 600.56 873.99 596.44 881.6 588.19C889.2 579.94 893.01 570.05 893.01 558.5C893.01 553.74 891.77 549.66 889.3 546.27C886.83 542.88 883.21 541.19 878.44 541.19Z" fill="white"/>
<path d="M1064.8 691C1051.97 691 1040.93 685.46 1031.68 674.37C1022.42 663.29 1013.77 647.76 1005.7 627.78C989.57 647.57 977.84 669.74 970.52 694.3C956.78 682.94 949.9 672.86 949.9 664.06C949.9 657.65 953.89 649.72 961.86 640.28C969.83 630.84 981.51 618.98 996.91 604.68C985.18 572.98 977.16 553.33 972.86 545.72C968.55 538.12 965.03 532.48 962.28 528.82C971.44 524.06 979.78 521.67 987.29 521.67C993.34 521.67 998.29 524.24 1002.13 529.37C1006.71 535.05 1010.19 541.15 1012.58 547.65C1014.96 554.16 1016.75 559.29 1017.94 563.04C1019.13 566.8 1020.92 572.34 1023.3 579.67C1049.5 554.02 1063.98 533.86 1066.73 519.2C1077.54 528.37 1082.95 536.34 1082.95 543.11C1082.95 547.88 1081.3 552.73 1078 557.68C1074.7 562.63 1071.22 566.8 1067.56 570.19C1063.89 573.58 1057.89 578.71 1049.56 585.58C1041.22 592.45 1034.85 597.91 1030.46 601.93C1036.87 619.71 1045.48 637.02 1056.3 653.88C1067.11 670.74 1075.82 682.29 1082.41 688.51C1075.81 690.16 1069.95 690.98 1064.82 690.98L1064.8 691Z" fill="white"/>
<path d="M1184.23 543.94C1195.86 535.14 1207.36 530.75 1218.73 530.75C1230.1 530.75 1239.48 535.29 1246.9 544.36C1254.32 553.43 1258.03 566.58 1258.03 583.8C1258.03 611.29 1250.51 634.65 1235.49 653.89C1220.46 673.13 1202.41 682.75 1181.34 682.75C1173.82 682.75 1166.22 681.29 1158.53 678.35C1176.49 674.14 1190.78 662.5 1201.41 643.44C1212.03 624.38 1217.35 605.42 1217.35 586.54C1217.35 577.74 1215.74 570.6 1212.54 565.1C1209.33 559.6 1204.8 556.85 1198.93 556.85C1187.75 556.85 1177.86 563.63 1169.24 577.19C1160.62 590.75 1154.03 609.31 1149.45 632.85C1144.87 656.4 1142.58 680.95 1142.58 706.52C1142.58 732.09 1144.41 754.3 1148.08 773.18C1133.05 772.63 1121.92 770.2 1114.68 765.9C1107.44 761.59 1103.82 753.39 1103.82 741.3C1103.82 736.9 1106.61 713.68 1112.2 671.62C1117.79 629.57 1120.58 597.18 1120.58 574.45C1120.58 551.72 1119.21 532.58 1116.46 517C1131.12 520.67 1141.24 527.45 1146.83 537.34C1152.42 547.23 1155.21 561.71 1155.21 580.77C1162.91 565.01 1172.57 552.73 1184.21 543.94H1184.23Z" fill="white"/>
<path d="M1388.04 524.98C1399.04 524.98 1408.38 530.39 1416.08 541.2C1423.78 552.01 1427.62 566.49 1427.62 584.63C1427.62 604.97 1423.5 623.66 1415.25 640.7C1406.08 659.94 1393.08 673.23 1376.22 680.56C1366.69 684.77 1356.25 686.88 1344.89 686.88C1328.95 686.88 1315.07 680.7 1303.25 668.33C1291.43 655.96 1285.52 638.19 1285.52 615.01C1285.52 591.83 1291.2 571.4 1302.56 553.72C1313.92 536.04 1328.95 524.91 1347.64 520.32C1349.65 520.32 1351.53 520.92 1353.27 522.11C1355.01 523.3 1355.88 524.54 1355.88 525.82C1337.37 538.65 1326.28 556.52 1322.62 579.42C1326.47 569.16 1331.18 560.27 1336.78 552.76C1342.37 545.25 1348.19 539.57 1354.23 535.72C1365.77 528.57 1377.04 525 1388.04 525V524.98ZM1371 545.05C1359.09 545.05 1348.46 553.07 1339.12 569.1C1329.77 585.14 1325.1 601.12 1325.1 617.06C1325.1 650.41 1333.71 667.09 1350.94 667.09C1363.21 667.09 1373.2 659.08 1380.9 643.04C1388.6 627.01 1392.44 609 1392.44 589.03C1392.44 559.71 1385.29 545.05 1371 545.05Z" fill="white"/>
<defs>
<linearGradient id="paint0_linear_229_1075" x1="137.41" y1="438.8" x2="833.7" y2="438.8" gradientUnits="userSpaceOnUse">
<stop offset="0.15" stop-color="#3D3D46"/>
<stop offset="0.72" stop-color="#77BEE6"/>
</linearGradient>
<linearGradient id="paint1_linear_229_1075" x1="267.04" y1="319.08" x2="791.61" y2="319.08" gradientUnits="userSpaceOnUse">
<stop offset="0.11" stop-color="#3D3D46" stop-opacity="0.7"/>
<stop offset="0.7" stop-color="#77BEE6"/>
</linearGradient>
<linearGradient id="paint2_linear_229_1075" x1="267.69" y1="381.71" x2="880" y2="381.71" gradientUnits="userSpaceOnUse">
<stop offset="0.57" stop-color="#3D3D46"/>
<stop offset="0.8" stop-color="#77BEE6"/>
</linearGradient>
<linearGradient id="paint3_linear_229_1075" x1="17.0955" y1="4.02829" x2="479.21" y2="365.559" gradientUnits="userSpaceOnUse">
<stop offset="0.45" stop-color="#FF803A"/>
<stop offset="0.5" stop-color="#F77D3A"/>
<stop offset="0.59" stop-color="#E2763B"/>
<stop offset="0.7" stop-color="#BF6A3D"/>
<stop offset="0.82" stop-color="#905940"/>
<stop offset="0.95" stop-color="#534444"/>
<stop offset="1" stop-color="#3D3D46"/>
</linearGradient>
<linearGradient id="paint4_linear_229_1075" x1="6.08489" y1="237.646" x2="482.595" y2="360.334" gradientUnits="userSpaceOnUse">
<stop offset="0.52" stop-color="#FF803A"/>
<stop offset="1" stop-color="#3D3D46"/>
</linearGradient>
<linearGradient id="paint5_linear_229_1075" x1="194.664" y1="287.741" x2="485.995" y2="297.965" gradientUnits="userSpaceOnUse">
<stop stop-color="#B65B51"/>
<stop offset="0.72" stop-color="#3D3D46"/>
</linearGradient>
</defs>
</svg>
