<svg data-name="сгрупп" xmlns="http://www.w3.org/2000/svg" viewBox="0 0 2090.8 909.67"><defs><linearGradient id="a" data-name="Безымянный градиент 380" x1="137.41" y1="438.8" x2="833.7" y2="438.8" gradientUnits="userSpaceOnUse"><stop offset=".15" stop-color="#3d3d46"/><stop offset=".72" stop-color="#77bee6"/></linearGradient><linearGradient id="c" data-name="Безымянный градиент 383" x1="267.04" y1="319.08" x2="791.61" y2="319.08" gradientUnits="userSpaceOnUse"><stop offset=".11" stop-color="#3d3d46" stop-opacity=".7"/><stop offset=".7" stop-color="#77bee6"/></linearGradient><linearGradient id="e" data-name="Безымянный градиент 422" x1="267.69" y1="381.71" x2="880" y2="381.71" gradientUnits="userSpaceOnUse"><stop offset=".57" stop-color="#3d3d46"/><stop offset=".8" stop-color="#77bee6"/></linearGradient><linearGradient id="f" data-name="Безымянный градиент 402" x1="15.45" y1="5.85" x2="489.96" y2="350.95" gradientTransform="rotate(2.01 68.196 51.835)" gradientUnits="userSpaceOnUse"><stop offset=".45" stop-color="#ff803a"/><stop offset=".5" stop-color="#f77d3a"/><stop offset=".59" stop-color="#e2763b"/><stop offset=".7" stop-color="#bf6a3d"/><stop offset=".82" stop-color="#905940"/><stop offset=".95" stop-color="#534444"/><stop offset="1" stop-color="#3d3d46"/></linearGradient><linearGradient id="g" data-name="Безымянный градиент 406" x1="12.64" y1="239.71" x2="493.16" y2="345.61" gradientTransform="rotate(2.01 68.196 51.835)" gradientUnits="userSpaceOnUse"><stop offset=".52" stop-color="#ff803a"/><stop offset="1" stop-color="#3d3d46"/></linearGradient><linearGradient id="h" data-name="Безымянный градиент 323" x1="202.86" y1="283.16" x2="494.37" y2="283.16" gradientTransform="rotate(2.01 68.196 51.835)" gradientUnits="userSpaceOnUse"><stop offset="0" stop-color="#b65b51"/><stop offset=".72" stop-color="#3d3d46"/></linearGradient><clipPath id="b"><path d="M137.41 799.21s-1.01-87.04 59.22-172.17c8.68-12.27 18.63-24.5 30.04-36.42 17.53-18.31 38.49-35.91 63.58-51.81 154.73-98.12 267.95-188.7 315.12-333.99C642.52 90.39 727.67 87.15 762.16 90.94c9.3 1.02 71.53-12.54 71.53-12.54l-45.29 52.83S709.15 217.39 712.92 313c3.77 95.61-50.95 199.39-160.39 227.7 0 0-311.58 56.84-415.13 258.51Z" style="fill:none"/></clipPath><clipPath id="d"><path d="M137.41 799.21s-1.01-87.04 59.22-172.17c8.68-12.27 18.63-24.5 30.04-36.42 17.53-18.31 38.49-35.91 63.58-51.81 154.73-98.12 267.95-188.7 315.12-333.99C642.52 90.39 727.67 87.15 762.16 90.94c9.3 1.02 14.92 2.55 14.92 2.55l56.61-15.1-45.29 52.83s-79.25 86.16-75.48 181.77c3.77 95.61-50.95 199.39-160.39 227.7 0 0-311.58 56.84-415.13 258.51Z" style="fill:none"/></clipPath></defs><g data-name="text (копия2)"><path d="M137.41 799.21s-1.01-87.04 59.22-172.17c8.68-12.27 18.63-24.5 30.04-36.42 17.53-18.31 38.49-35.91 63.58-51.81 154.73-98.12 267.95-188.7 315.12-333.99C642.52 90.39 727.67 87.15 762.16 90.94c9.3 1.02 14.92 2.55 14.92 2.55l56.61-15.1-45.29 52.83s-79.25 86.16-75.48 181.77c3.77 95.61-50.95 199.39-160.39 227.7 0 0-311.58 56.84-415.13 258.51Z" style="fill:url(#a)"/><g style="clip-path:url(#b)"><path d="M791.61 91.6s-28.15 4.56-28.13 1.06c.13-21.01-89.81-7.11-123.66 46.62-38.32 60.82-53.94 104.48-80.15 157.05-29.97 60.13-90.02 107.32-113.37 133.5-23.35 26.18-179.25 125.01-179.25 125.01s217.46-87.06 302.37-217.26c0 0 61.33-101.64 87.74-162.96 26.42-61.33 133.75-84.82 133.75-84.82" style="fill:url(#c)"/></g><g style="clip-path:url(#d)"><path d="M849.34 67.78s-148.41 101.6-158.03 204.26c-9.91 105.68-25.39 136.18-76.89 190.58-41.98 44.34-188.56 99.25-206.15 107.56-253.66 119.8-95.85 134.38-49.06 121.71 12.75-3.45 282.1-68.45 282.1-68.45l188.36-221.72 50.34-191.53-30.66-142.42Z" style="fill:url(#e);opacity:.47"/></g><path d="M20.24 0s93.18 281.71 465.48 357.22c0 0-154.15-280.52-452.95-353.77L20.24 0Z" style="fill:url(#f)"/><path d="M0 224.97s165.53 194.52 486.92 134.2c0 0-213.78-173.83-475.82-135.51l-11.11 1.31Z" style="fill:url(#g)"/><path d="M483.95 356.84c-19.35-14.94-132.47-98.15-287.21-128.02 68.91 53.54 162.28 102.4 287.21 128.02Z" style="fill:url(#h)"/><path d="M895.76 307.89c0 7.7-1.47 13.01-4.4 15.94s-7.24 4.4-12.92 4.4h-23.09c-6.23 39.58-9.34 77.24-9.34 112.97 0 10.81.23 18.64.69 23.5.46 4.85 1.69 13.15 3.71 24.88-20.71-8.25-31.06-27.12-31.06-56.62 0-33.16 3.39-67.52 10.17-103.08-9.17 1.47-18.6 4.22-28.31 8.25-.37-2.93-.55-5.59-.55-7.97 0-8.8 2.89-14.71 8.66-17.73 5.77-3.02 14.06-4.54 24.88-4.54 15.76-64.5 40.04-96.75 72.84-96.75 10.81 0 19.7 3.02 26.66 9.07 6.96 6.05 10.44 13.29 10.44 21.71s-2.47 15.53-7.42 21.3c-4.95 5.77-11.45 8.66-19.52 8.66-3.3 0-6.32-.64-9.07-1.92 2.2-2.01 4.44-5.36 6.73-10.03 2.29-4.67 3.44-9.53 3.44-14.57s-1.33-9.3-3.99-12.78c-2.66-3.48-6.09-5.22-10.31-5.22-19.42 0-34.54 27.12-45.35 81.36 17.77 0 29.96-2.65 36.56-7.97.36 2.57.55 4.95.55 7.15Zm64.04 43.01c-5.32 9.25-9.39 18.69-12.23 28.31-2.84 9.62-4.26 18.83-4.26 27.62s1.97 16.26 5.91 22.4c3.94 6.14 9.57 9.21 16.9 9.21 10.26 0 19.88-5.63 28.86-16.9s15.89-24.92 20.75-40.96c4.85-16.03 7.28-30.88 7.28-44.53s-.55-24.88-1.65-33.67c4.4-.37 7.15-.55 8.25-.55 15.57 0 23.36 7.97 23.36 23.91 0 3.48-2.2 17.64-6.6 42.47-4.4 24.83-6.6 44.71-6.6 59.65s2.84 28.17 8.52 39.72c-11.54-2.38-19.93-7.47-25.15-15.25s-7.83-19.01-7.83-33.67c0-2.56.37-7.51 1.1-14.84-4.95 17.41-13.65 31.43-26.11 42.05-12.46 10.63-24.7 15.94-36.69 15.94s-21.67-4.54-29-13.61c-7.33-9.07-10.99-21.62-10.99-37.66s2.98-31.7 8.93-47c5.95-15.3 14.93-28.54 26.94-39.72 12-11.17 25.42-16.77 40.27-16.77 6.41 0 13.47 1.28 21.17 3.85-10.81 2.75-20.71 7.79-29.69 15.12-8.98 7.33-16.13 15.62-21.44 24.88Zm191.72-37.52c-6.14 0-11.64 1.92-16.49 5.77-4.86 3.85-7.28 9.12-7.28 15.8s2.24 12.97 6.73 18.83c4.49 5.87 9.94 11.09 16.35 15.67 6.41 4.58 12.92 9.25 19.52 14.02 15.39 11.36 23.09 23.55 23.09 36.56s-5.22 23.6-15.67 31.75c-10.45 8.15-23.78 12.23-39.99 12.23s-28.77-3.21-37.66-9.62c-8.89-6.41-13.33-13.97-13.33-22.68s2.2-15.53 6.6-20.48c4.4-4.95 9.71-7.42 15.94-7.42 3.3 0 6.41.73 9.35 2.2-4.03 5.13-6.05 11.18-6.05 18.14s2.15 12.83 6.46 17.59c4.3 4.77 10.26 7.15 17.87 7.15s14.06-1.97 19.38-5.91c5.31-3.94 7.97-8.93 7.97-14.98s-1.56-11.36-4.67-15.94c-3.12-4.58-7.01-8.52-11.68-11.82-4.67-3.3-9.76-6.96-15.25-11-5.5-4.03-10.58-8.01-15.26-11.96-4.67-3.94-8.57-8.89-11.68-14.84-3.12-5.95-4.67-12.51-4.67-19.65 0-13.01 4.95-23.68 14.84-32.02 9.9-8.34 22.35-12.51 37.38-12.51s26.02 3.12 32.98 9.35c6.96 6.23 10.45 13.24 10.45 21.03s-1.92 14.2-5.77 19.24c-3.85 5.04-8.8 7.56-14.84 7.56-2.93 0-6.32-.82-10.17-2.47 4.76-5.86 7.15-12.18 7.15-18.97s-2.06-11.91-6.18-15.39c-4.12-3.48-9.26-5.22-15.39-5.22Zm142.38 7.84c12.55-14.2 24.33-21.3 35.32-21.3s18.78 3.34 23.36 10.03c4.58 6.69 6.87 15.76 6.87 27.21s-1.79 27.53-5.36 48.24c-3.57 20.71-5.36 35.78-5.36 45.21s1.19 16.31 3.57 20.62c2.38 4.31 6.41 8.01 12.09 11.13-2.38.18-5.77.28-10.17.28-11.73 0-20.39-2.43-25.98-7.28s-8.38-13.15-8.38-24.88c0-6.78 1.83-20.48 5.5-41.09 3.66-20.62 5.5-35.78 5.5-45.49 0-12.09-4.22-18.14-12.64-18.14-4.95 0-10.45 2.61-16.49 7.83s-11.87 12.28-17.45 21.17c-5.59 8.89-10.26 20.16-14.02 33.81-3.76 13.65-5.63 27.12-5.63 40.41s.55 23.14 1.65 29.55c-4.4.37-6.87.55-7.42.55-8.62 0-14.98-1.83-19.1-5.5-4.12-3.66-6.18-9.39-6.18-17.18s1.65-22.77 4.95-44.94c9.71-68.17 14.57-119.93 14.57-155.3 0-15.94-1.1-26.66-3.3-32.16 10.63 3.85 18.09 9.53 22.4 17.04 4.3 7.52 6.46 17.87 6.46 31.06 0 9.17-1.79 28.41-5.36 57.72-3.57 29.32-6 50.58-7.28 63.77 6.05-20.71 15.34-38.16 27.9-52.36Zm122.58 124.51c-4.12-7.6-6.18-16.81-6.18-27.62s1.46-26.29 4.4-46.45c2.93-20.16 4.4-35.82 4.4-47s-.55-19.79-1.65-25.84c3.3-.37 5.95-.55 7.97-.55 8.25 0 14.2 1.83 17.87 5.5 3.66 3.67 5.5 9.71 5.5 18.14 0 2.75-2.25 17.18-6.73 43.29-4.49 26.11-6.78 47.65-6.87 64.59-.09 16.95.96 27.9 3.16 32.85-10.45-3.67-17.73-9.3-21.85-16.9Zm25.98-174.68c-15.39 0-23.09-5.22-23.09-15.67 0-3.66 1.37-8.79 4.12-15.39 4.03-.73 7.51-1.1 10.44-1.1 15.39 0 23.09 5.22 23.09 15.67 0 3.67-1.37 8.8-4.12 15.39-4.03.73-7.52 1.1-10.44 1.1Zm101.29 43.3c11.82-9.07 23.82-13.61 36.01-13.61s22.31 5.36 30.37 16.08c8.06 10.72 12.09 25.24 12.09 43.57 0 20.16-3.85 38.85-11.54 56.07-8.62 19.06-21.07 32.34-37.38 39.86-8.79 4.21-18.51 6.32-29.14 6.32-14.84 0-27.86-6.18-39.03-18.55-11.18-12.37-16.77-30.05-16.77-53.05s4.95-42.92 14.84-59.78c9.9-16.86 23.36-28.59 40.41-35.18 3.66 0 5.5 1.83 5.5 5.5-18.14 11.91-29.32 30.61-33.53 56.07 6.96-19.79 16.35-34.22 28.17-43.29Zm51.54 53.87c0-17.87-2.25-30.69-6.73-38.48-4.49-7.79-10.91-11.68-19.24-11.68s-16.72 4.08-25.15 12.23c-8.43 8.16-15.07 18.24-19.93 30.24-4.86 12-7.28 24.46-7.28 37.38s2.47 24.1 7.42 33.53c4.95 9.44 12.46 14.16 22.54 14.16 14.29 0 25.93-8.43 34.91-25.29 8.98-16.86 13.47-34.22 13.47-52.09Zm194.05-29.27c0 8.43-1.79 23.32-5.36 44.67-3.57 21.35-5.36 36.88-5.36 46.59s1.19 16.72 3.57 21.03c2.38 4.31 6.41 8.01 12.09 11.13-2.38.18-5.77.28-10.17.28-12.46 0-21.3-2.34-26.52-7.01-5.22-4.67-7.83-13.06-7.83-25.15 0-6.78 1.83-20.48 5.5-41.09 3.66-20.62 5.5-35.78 5.5-45.49 0-12.09-3.67-18.14-10.99-18.14-11.73 0-23.87 10.35-36.42 31.06s-18.83 45.63-18.83 74.76c0 11.54.55 20.52 1.65 26.94-4.77.37-7.61.55-8.52.55-16.13 0-24.19-7.88-24.19-23.64 0-3.66 1.92-17.77 5.77-42.33 3.85-24.55 5.77-44.12 5.77-58.68s-1.56-27.99-4.67-40.27c10.81 4.22 18.37 10.22 22.68 18 4.3 7.79 6.46 16.68 6.46 26.66s-1.1 21.58-3.3 34.77c6.05-20.71 15.53-38.16 28.45-52.36 12.92-14.2 24.97-21.3 36.14-21.3 19.06 0 28.59 13.01 28.59 39.03ZM866.9 615.13c-8.8 0-17.41-1-25.84-3.02-.18 1.83-.27 4.67-.27 8.52 0 15.21 2.84 26.66 8.52 34.36 5.68 7.7 12.46 11.54 20.34 11.54s15.39-2.38 22.54-7.15c7.15-4.76 13.37-11.36 18.69-19.79 6.6 1.47 9.9 4.86 9.9 10.17-16.13 24.74-36.93 37.11-62.39 37.11-15.39 0-28.86-5.91-40.41-17.73-11.54-11.82-17.32-28.26-17.32-49.34 0-15.76 3.02-30.74 9.07-44.94 6.05-14.2 15.67-26.2 28.86-36.01 13.19-9.8 27.8-14.71 43.84-14.71s27.8 3.67 35.32 10.99c7.51 7.33 11.27 16.95 11.27 28.86 0 17.23-6 30.05-18 38.48-12 8.43-26.71 12.64-44.12 12.64Zm11.54-73.94c-9.34 0-17.23 5.77-23.64 17.32-6.42 11.54-10.63 25.56-12.64 42.05h4.12c15.94 0 27.71-4.12 35.32-12.37 7.6-8.25 11.41-18.14 11.41-29.69 0-4.76-1.24-8.84-3.71-12.23-2.47-3.39-6.09-5.08-10.86-5.08ZM1064.8 691c-12.83 0-23.87-5.54-33.12-16.63-9.26-11.08-17.91-26.61-25.98-46.59-16.13 19.79-27.86 41.96-35.18 66.52-13.74-11.36-20.62-21.44-20.62-30.24 0-6.41 3.99-14.34 11.96-23.78 7.97-9.44 19.65-21.3 35.05-35.6-11.73-31.7-19.75-51.35-24.05-58.96-4.31-7.6-7.83-13.24-10.58-16.9 9.16-4.76 17.5-7.15 25.01-7.15 6.05 0 11 2.57 14.84 7.7 4.58 5.68 8.06 11.78 10.45 18.28 2.38 6.51 4.17 11.64 5.36 15.39 1.19 3.76 2.98 9.3 5.36 16.63 26.2-25.65 40.68-45.81 43.43-60.47 10.81 9.17 16.22 17.14 16.22 23.91 0 4.77-1.65 9.62-4.95 14.57-3.3 4.95-6.78 9.12-10.44 12.51-3.67 3.39-9.67 8.52-18 15.39-8.34 6.87-14.71 12.33-19.1 16.35 6.41 17.78 15.02 35.09 25.84 51.95 10.81 16.86 19.52 28.41 26.11 34.63-6.6 1.65-12.46 2.47-17.59 2.47Zm119.43-147.06c11.63-8.8 23.13-13.19 34.5-13.19s20.75 4.54 28.17 13.61c7.42 9.07 11.13 22.22 11.13 39.44 0 27.49-7.52 50.85-22.54 70.09-15.03 19.24-33.08 28.86-54.15 28.86-7.52 0-15.12-1.46-22.81-4.4 17.96-4.21 32.25-15.85 42.88-34.91 10.62-19.06 15.94-38.02 15.94-56.9 0-8.8-1.61-15.94-4.81-21.44-3.21-5.5-7.74-8.25-13.61-8.25-11.18 0-21.07 6.78-29.69 20.34-8.62 13.56-15.21 32.12-19.79 55.66-4.58 23.55-6.87 48.1-6.87 73.67s1.83 47.78 5.5 66.66c-15.03-.55-26.16-2.98-33.4-7.28-7.24-4.31-10.86-12.51-10.86-24.6 0-4.4 2.79-27.62 8.38-69.68 5.59-42.05 8.38-74.44 8.38-97.17s-1.37-41.87-4.12-57.45c14.66 3.67 24.78 10.45 30.37 20.34s8.38 24.37 8.38 43.43c7.7-15.76 17.36-28.04 29-36.83Zm203.81-18.96c11 0 20.34 5.41 28.04 16.22 7.7 10.81 11.54 25.29 11.54 43.43 0 20.34-4.12 39.03-12.37 56.07-9.17 19.24-22.17 32.53-39.03 39.86-9.53 4.21-19.97 6.32-31.33 6.32-15.94 0-29.82-6.18-41.64-18.55s-17.73-30.14-17.73-53.32 5.68-43.61 17.04-61.29 26.39-28.81 45.08-33.4c2.01 0 3.89.6 5.63 1.79 1.74 1.19 2.61 2.43 2.61 3.71-18.51 12.83-29.6 30.7-33.26 53.6 3.85-10.26 8.56-19.15 14.16-26.66 5.59-7.51 11.41-13.19 17.45-17.04 11.54-7.15 22.81-10.72 33.81-10.72ZM1371 545.05c-11.91 0-22.54 8.02-31.88 24.05-9.35 16.04-14.02 32.02-14.02 47.96 0 33.35 8.61 50.03 25.84 50.03 12.27 0 22.26-8.01 29.96-24.05 7.7-16.03 11.54-34.04 11.54-54.01 0-29.32-7.15-43.98-21.44-43.98Z" style="fill:#fff"/></g></svg>